<svg width="152" height="28" viewBox="0 0 152 28" fill="none" xmlns="http://www.w3.org/2000/svg">
<path d="M70.1494 17.5143C70.8923 17.5143 71.5072 17.3862 72.0451 17.1044C72.5831 16.8226 72.993 16.4384 73.2748 15.926C73.5566 15.4137 73.7103 14.8245 73.7103 14.1328C73.7103 13.4411 73.5566 12.8263 73.2748 12.314C72.993 11.8016 72.5575 11.3917 72.0195 11.1099C71.4815 10.8281 70.8411 10.6744 70.0982 10.6744H68.0232V17.5143H70.1494ZM65.3333 8.29199H70.175C71.4047 8.29199 72.5062 8.52255 73.4541 8.98367C74.4019 9.44478 75.1449 10.1108 75.6828 10.9818C76.2208 11.8528 76.477 12.8775 76.477 14.0303C76.477 15.2087 76.2208 16.2078 75.7084 17.0788C75.1961 17.9498 74.4532 18.6415 73.5053 19.1026C72.5575 19.5893 71.4559 19.8199 70.2007 19.8199H65.3589L65.3333 8.29199Z" fill="black"/>
<path d="M83.3681 17.668C84.0342 17.668 84.6234 17.5143 85.1357 17.2069C85.6481 16.8995 86.058 16.464 86.3654 15.926C86.6728 15.3881 86.8265 14.7732 86.8265 14.0816C86.8265 13.3899 86.6728 12.7751 86.3654 12.2371C86.058 11.6991 85.6481 11.2636 85.1357 10.9562C84.6234 10.6488 84.0342 10.4951 83.3681 10.4951C82.7021 10.4951 82.1385 10.6488 81.6005 10.9562C81.0882 11.2636 80.6527 11.6991 80.3709 12.2371C80.0635 12.7751 79.9098 13.3899 79.9098 14.0816C79.9098 14.7732 80.0635 15.3881 80.3709 15.926C80.6783 16.464 81.0882 16.8995 81.6005 17.2069C82.1385 17.5143 82.7277 17.668 83.3681 17.668ZM83.3681 20.1785C82.2153 20.1785 81.1394 19.8968 80.2172 19.3588C79.2693 18.8208 78.5264 18.0779 78.014 17.1301C77.4761 16.2078 77.2199 15.1575 77.2199 14.0559C77.2199 12.9544 77.4761 11.9297 78.014 10.9818C78.552 10.0596 79.2693 9.3167 80.2172 8.75311C81.165 8.21514 82.2153 7.93335 83.3937 7.93335C84.5721 7.93335 85.6225 8.21514 86.5703 8.75311C87.5182 9.29108 88.2611 10.034 88.799 10.9818C89.337 11.9041 89.5932 12.9544 89.5932 14.0559C89.5932 15.1831 89.337 16.2078 88.799 17.1301C88.2611 18.0523 87.5182 18.7952 86.5703 19.3588C85.5969 19.9224 84.5465 20.1785 83.3681 20.1785Z" fill="black"/>
<path d="M96.4074 17.668C97.0735 17.668 97.6627 17.5143 98.175 17.2069C98.6874 16.8995 99.0973 16.464 99.4047 15.926C99.7121 15.3881 99.8658 14.7732 99.8658 14.0816C99.8658 13.3899 99.7121 12.7751 99.4047 12.2371C99.0973 11.6991 98.6874 11.2636 98.175 10.9562C97.6627 10.6488 97.0735 10.4951 96.4074 10.4951C95.7414 10.4951 95.1778 10.6488 94.6398 10.9562C94.1275 11.2636 93.6919 11.6991 93.4102 12.2371C93.1027 12.7751 92.949 13.3899 92.949 14.0816C92.949 14.7732 93.1027 15.3881 93.4102 15.926C93.7176 16.464 94.1275 16.8995 94.6398 17.2069C95.1778 17.5143 95.767 17.668 96.4074 17.668ZM96.3818 20.1785C95.229 20.1785 94.1531 19.8968 93.2308 19.3588C92.283 18.8208 91.5401 18.0779 91.0277 17.1301C90.4898 16.2078 90.2336 15.1575 90.2336 14.0559C90.2336 12.9544 90.4898 11.9297 91.0277 10.9818C91.5657 10.0596 92.283 9.3167 93.2308 8.75311C94.1787 8.21514 95.229 7.93335 96.4074 7.93335C97.5858 7.93335 98.6361 8.21514 99.584 8.75311C100.532 9.29108 101.275 10.034 101.813 10.9818C102.351 11.9041 102.607 12.9544 102.607 14.0559C102.607 15.1831 102.351 16.2078 101.813 17.1301C101.275 18.0523 100.532 18.7952 99.584 19.3588C98.6361 19.9224 97.5602 20.1785 96.3818 20.1785Z" fill="black"/>
<path d="M108.627 17.5143C109.37 17.5143 109.985 17.3862 110.523 17.1044C111.061 16.8226 111.471 16.4384 111.752 15.926C112.034 15.4137 112.188 14.8245 112.188 14.1328C112.188 13.4411 112.034 12.8263 111.752 12.314C111.471 11.8016 111.035 11.3917 110.497 11.1099C109.959 10.8281 109.319 10.6744 108.576 10.6744H106.501V17.5143H108.627ZM103.836 8.29199H108.678C109.908 8.29199 111.009 8.52255 111.957 8.98367C112.905 9.44478 113.648 10.1108 114.186 10.9818C114.724 11.8528 114.98 12.8775 114.98 14.0303C114.98 15.2087 114.724 16.2078 114.212 17.0788C113.699 17.9498 112.956 18.6415 112.008 19.1026C111.061 19.5893 109.959 19.8199 108.704 19.8199H103.862L103.836 8.29199Z" fill="black"/>
<path d="M121.871 17.668C122.537 17.668 123.127 17.5143 123.639 17.2069C124.151 16.8995 124.561 16.464 124.869 15.926C125.176 15.3881 125.33 14.7732 125.33 14.0816C125.33 13.3899 125.176 12.7751 124.869 12.2371C124.561 11.6991 124.151 11.2636 123.639 10.9562C123.127 10.6488 122.537 10.4951 121.871 10.4951C121.205 10.4951 120.642 10.6488 120.104 10.9562C119.591 11.2636 119.156 11.6991 118.874 12.2371C118.567 12.7751 118.413 13.3899 118.413 14.0816C118.413 14.7732 118.567 15.3881 118.874 15.926C119.181 16.464 119.591 16.8995 120.104 17.2069C120.642 17.5143 121.231 17.668 121.871 17.668ZM121.846 20.1785C120.693 20.1785 119.617 19.8968 118.695 19.3588C117.747 18.8208 117.004 18.0779 116.492 17.1301C115.954 16.2078 115.697 15.1575 115.697 14.0559C115.697 12.9544 115.954 11.9297 116.492 10.9818C117.03 10.0596 117.747 9.3167 118.695 8.75311C119.643 8.21514 120.693 7.93335 121.871 7.93335C123.05 7.93335 124.1 8.21514 125.048 8.75311C125.996 9.29108 126.739 10.034 127.277 10.9818C127.815 11.9041 128.071 12.9544 128.071 14.0559C128.071 15.1831 127.815 16.2078 127.277 17.1301C126.739 18.0523 125.996 18.7952 125.048 19.3588C124.1 19.9224 123.024 20.1785 121.846 20.1785Z" fill="black"/>
<path d="M134.783 20.1785C133.63 20.1785 132.605 19.8968 131.683 19.3588C130.761 18.8208 130.043 18.0779 129.505 17.1301C128.967 16.1822 128.711 15.1575 128.711 14.0559C128.711 12.9288 128.967 11.9297 129.505 10.9818C130.043 10.0596 130.761 9.3167 131.683 8.75311C132.605 8.18952 133.63 7.93335 134.783 7.93335C135.782 7.93335 136.678 8.11267 137.472 8.49694C138.267 8.8812 138.958 9.39355 139.496 10.0596C140.034 10.7257 140.418 11.4942 140.649 12.3396H137.831C137.575 11.6991 137.191 11.238 136.653 10.9306C136.115 10.6232 135.5 10.4439 134.808 10.4439C134.245 10.4439 133.681 10.5976 133.169 10.8794C132.656 11.1612 132.246 11.5967 131.939 12.1346C131.632 12.6726 131.478 13.313 131.478 14.0303C131.478 14.7732 131.632 15.3881 131.939 15.926C132.246 16.464 132.656 16.8995 133.169 17.1813C133.681 17.4631 134.219 17.6168 134.808 17.6168C135.269 17.6168 135.679 17.5399 136.089 17.3862C136.473 17.2325 136.832 17.002 137.139 16.7202C137.447 16.4128 137.677 16.0285 137.831 15.5674H140.649C140.444 16.464 140.06 17.2581 139.522 17.9498C138.984 18.6415 138.318 19.1795 137.498 19.5637C136.653 19.9736 135.756 20.1785 134.783 20.1785Z" fill="black"/>
<path d="M146.285 20.1785C145.183 20.1785 144.261 19.9992 143.493 19.615C142.724 19.2307 142.16 18.744 141.802 18.1291C141.417 17.5143 141.238 16.8483 141.238 16.1566H143.877C143.902 16.5152 144.005 16.8226 144.184 17.1044C144.363 17.3862 144.645 17.5912 145.004 17.7705C145.363 17.9242 145.798 18.001 146.31 18.001C146.772 18.001 147.156 17.9498 147.463 17.8217C147.771 17.6936 148.001 17.5399 148.155 17.3094C148.309 17.1044 148.385 16.8226 148.385 16.5408C148.385 16.2334 148.283 15.9773 148.104 15.7723C147.924 15.593 147.643 15.4393 147.31 15.3368C146.951 15.2344 146.49 15.1319 145.901 15.055C145.055 14.9526 144.338 14.7476 143.723 14.4914C143.108 14.2353 142.622 13.851 142.237 13.3643C141.879 12.8775 141.674 12.2371 141.674 11.4942C141.674 10.7769 141.853 10.1621 142.186 9.62411C142.519 9.08614 143.031 8.67626 143.697 8.36885C144.364 8.08705 145.158 7.93335 146.105 7.93335C147.053 7.93335 147.873 8.08705 148.59 8.39446C149.308 8.70187 149.871 9.13737 150.256 9.70096C150.64 10.2645 150.845 10.905 150.845 11.6223L148.129 11.5967C148.104 11.3149 148.027 11.0587 147.873 10.8281C147.719 10.5976 147.489 10.4439 147.181 10.3158C146.874 10.1877 146.515 10.1365 146.105 10.1365C145.721 10.1365 145.414 10.1877 145.158 10.3158C144.901 10.4183 144.697 10.572 144.594 10.7769C144.466 10.9818 144.415 11.1868 144.415 11.4173C144.415 11.6991 144.492 11.9297 144.62 12.109C144.748 12.2883 144.978 12.4164 145.311 12.5445C145.644 12.647 146.182 12.7751 146.874 12.8775C146.951 12.8775 147.002 12.9032 147.079 12.9032C147.156 12.9288 147.233 12.9288 147.31 12.9544C148.155 13.1081 148.847 13.2874 149.41 13.5436C149.948 13.7742 150.384 14.1328 150.717 14.5939C151.05 15.055 151.203 15.6442 151.203 16.3871C151.203 17.2069 150.998 17.8986 150.563 18.4622C150.153 19.0258 149.564 19.4613 148.821 19.743C148.078 20.0505 147.233 20.2042 146.285 20.1785Z" fill="black"/>
<path d="M53.2589 16.3952C54.3092 14.9863 54.3092 13.0393 53.2589 11.6304L45.8298 1.61391C45.0869 0.589203 43.8829 0 42.6276 0H3.99634C1.79323 0 0 1.79323 0 3.99634V24.0037C0 26.2068 1.79323 28 3.99634 28H42.6276C43.8829 28 45.0869 27.4108 45.8298 26.3861L53.2589 16.3952Z" fill="#00FF20"/>
</svg>
